# xmcd
# 
# Track frame offsets:
#     150
#     14607
#     32072
#     53905
#     71420
#     89725
#     106449
#     126383
#     141556
#     158357
#     174837
#     190258
#     202788
# 
# Disc length: 2938
# 
# Revision: 1
# Processed by: cddbd v1.5.2PL0 Copyright (c) Steve Scherf et al.
# Submitted via: fre:ac v1.0.17
# 
DISCID=b30b780d
DTITLE=Olson Mark and Louris Gary - Ready for the Flood
DYEAR=2008
DGENRE=Folk/Rock
TTITLE0=The Rose Society
TTITLE1=Bicycle
TTITLE2=Turn You Pretty Name Around
TTITLE3=Saturday Morning On Sunday Street
TTITLE4=Kick The Wood
TTITLE5=Chamberlain,SD
TTITLE6=Black Eyes
TTITLE7=Doves And Stones
TTITLE8=My Gospel Song For You
TTITLE9=When The Wind Comes Up
TTITLE10=Bloody Hands
TTITLE11=Life's Warm Sheets
TTITLE12=The Trap's Been Set
EXTD=
EXTT0=
EXTT1=
EXTT2=
EXTT3=
EXTT4=
EXTT5=
EXTT6=
EXTT7=
EXTT8=
EXTT9=
EXTT10=
EXTT11=
EXTT12=
PLAYORDER=
